<?xml version='1.0' encoding='utf-8'?>
<svg xmlns="http://www.w3.org/2000/svg" version="1.0" width="1536.000000pt" height="1024.000000pt" viewBox="0 0 1536.000000 1024.000000" preserveAspectRatio="xMidYMid meet">

<g transform="translate(0.000000,1024.000000) scale(0.100000,-0.100000)" fill="#000000" stroke="none">
<path d="M4608 9573 c1689 -2 4455 -2 6145 0 1689 1 307 2 -3073 2 -3380 0 -4762 -1 -3072 -2z" />
<path d="M2160 9015 l0 -485 310 0 310 0 0 485 0 485 -310 0 -310 0 0 -485z m608 -2 l-3 -468 -297 -3 -298 -2 0 470 0 470 300 0 300 0 -2 -467z" />
<path d="M2442 9089 c-28 -11 -45 -54 -38 -98 7 -43 26 -63 61 -63 36 0 55 21 62 70 9 67 -32 111 -85 91z m46 -77 c2 -41 0 -54 -13 -59 -23 -8 -35 13 -35 63 0 45 6 56 30 52 11 -2 16 -18 18 -56z" />
<path d="M2308 9074 c-35 -19 -37 -38 -3 -30 25 6 25 5 25 -54 0 -47 3 -60 15 -60 12 0 15 16 15 80 0 87 -3 91 -52 64z" />
<path d="M2559 9073 c-8 -9 -14 -37 -14 -63 0 -57 17 -80 60 -80 43 0 60 23 60 80 0 57 -17 80 -60 80 -18 0 -39 -7 -46 -17z m69 -61 c2 -41 0 -54 -13 -59 -23 -8 -35 13 -35 63 0 45 6 56 30 52 11 -2 16 -18 18 -56z" />
<path d="M3340 9015 l0 -485 310 0 310 0 -2 483 -3 482 -307 3 -308 2 0 -485z m606 48 c-3 -230 -5 -442 -5 -470 l-1 -53 -295 0 -295 0 0 470 0 470 300 0 299 0 -3 -417z" />
<path d="M3498 9074 c-32 -17 -38 -39 -8 -31 18 5 20 0 21 -41 1 -26 1 -53 0 -59 -1 -7 7 -13 19 -13 18 0 20 6 20 80 0 87 -3 91 -52 64z" />
<path d="M3606 9068 c-30 -43 -14 -131 26 -141 11 -3 31 -1 44 5 40 18 53 106 21 146 -16 21 -74 15 -91 -10z m72 -37 c5 -46 -5 -81 -23 -81 -20 0 -28 17 -28 60 0 45 9 62 31 58 11 -2 18 -15 20 -37z" />
<path d="M3763 9073 c-28 -19 -30 -37 -3 -30 18 5 20 0 21 -46 1 -29 1 -55 0 -59 0 -5 8 -8 19 -8 18 0 20 7 20 80 0 87 -9 97 -57 63z" />
<path d="M4490 9015 l0 -485 310 0 310 0 -2 483 -3 482 -307 3 -308 2 0 -485z m600 -5 l0 -470 -295 0 -295 0 0 470 0 470 295 0 295 0 0 -470z" />
<path d="M4770 9093 c-27 -9 -40 -36 -40 -79 0 -56 8 -74 37 -85 25 -9 60 2 75 25 12 18 9 101 -4 118 -15 19 -47 28 -68 21z m38 -35 c16 -16 15 -70 -2 -93 -12 -16 -16 -17 -30 -6 -28 23 -17 111 14 111 3 0 11 -5 18 -12z" />
<path d="M4633 9073 c-28 -19 -30 -37 -3 -30 18 5 20 0 20 -54 0 -52 2 -59 20 -59 18 0 20 7 20 64 0 98 -11 112 -57 79z" />
<path d="M4881 9076 c-17 -20 3 -30 28 -14 17 11 23 10 37 -4 15 -15 13 -20 -30 -66 -25 -27 -46 -52 -46 -56 0 -3 27 -6 60 -6 33 0 60 4 60 10 0 6 -16 10 -35 10 -19 0 -35 2 -35 4 0 2 16 20 35 39 55 55 43 97 -26 97 -20 0 -42 -6 -48 -14z" />
<path d="M5647 9494 c-4 -4 -7 -222 -7 -486 l1 -478 314 0 315 0 -2 483 -3 482 -306 3 c-168 1 -308 -1 -312 -4z m606 -481 l-3 -468 -295 -3 -295 -2 0 470 0 470 298 0 297 0 -2 -467z" />
<path d="M5793 9073 c-28 -19 -30 -37 -3 -30 18 5 20 0 20 -54 0 -52 2 -59 20 -59 18 0 20 7 20 58 0 100 -12 117 -57 85z" />
<path d="M5907 9072 c-19 -21 -23 -92 -7 -123 13 -24 72 -26 94 -3 23 23 21 106 -2 127 -24 22 -65 21 -85 -1z m63 -28 c14 -35 12 -57 -5 -80 -15 -19 -15 -19 -30 0 -15 20 -20 62 -9 90 9 24 33 19 44 -10z" />
<path d="M6047 9083 c-15 -15 -5 -23 25 -21 42 4 50 -24 11 -38 l-28 -11 28 -12 c19 -7 27 -17 25 -29 -3 -16 -23 -20 -58 -11 -8 2 -15 -3 -15 -11 0 -11 13 -16 47 -18 43 -3 49 0 60 22 9 22 8 29 -6 45 -11 12 -14 21 -7 26 17 10 13 52 -5 59 -21 8 -69 8 -77 -1z" />
<path d="M7730 9015 l0 -485 315 0 315 0 0 485 0 485 -315 0 -315 0 0 -485z m620 -5 l0 -470 -300 0 -300 0 0 470 0 470 300 0 300 0 0 -470z" />
<path d="M7883 9073 c-28 -19 -30 -37 -3 -30 18 5 20 0 20 -54 0 -44 4 -59 14 -59 21 0 27 27 20 96 -7 67 -14 74 -51 47z" />
<path d="M7995 9080 c-43 -69 -5 -173 55 -152 50 17 68 92 34 140 -16 23 -77 32 -89 12z m69 -48 c10 -37 -5 -82 -28 -82 -25 0 -36 86 -14 108 18 18 32 9 42 -26z" />
<path d="M8146 9035 c-21 -30 -35 -59 -31 -65 3 -5 22 -10 41 -10 24 0 34 -5 34 -15 0 -8 7 -15 15 -15 8 0 15 7 15 15 0 8 5 15 10 15 6 0 10 7 10 15 0 8 -4 15 -10 15 -5 0 -10 23 -10 50 0 69 -24 68 -74 -5z m44 -15 c0 -23 -4 -30 -20 -30 -24 0 -25 5 -2 35 22 31 22 31 22 -5z" />
<path d="M8987 9493 c-4 -3 -7 -222 -7 -485 l0 -478 310 0 310 0 -2 483 -3 482 -301 3 c-165 1 -303 -1 -307 -5z m593 -483 l0 -470 -290 0 -290 0 0 470 0 470 290 0 290 0 0 -470z" />
<path d="M9263 9090 c-34 -14 -49 -76 -29 -123 13 -33 19 -37 50 -37 43 0 66 29 66 83 0 27 -7 45 -25 62 -26 27 -30 28 -62 15z m45 -78 c2 -41 0 -54 -13 -59 -23 -8 -35 13 -35 63 0 45 6 56 30 52 11 -2 16 -18 18 -56z" />
<path d="M9128 9074 c-35 -19 -37 -38 -3 -30 25 6 25 5 25 -54 0 -47 3 -60 15 -60 12 0 15 16 15 80 0 87 -3 91 -52 64z" />
<path d="M9380 9055 c0 -47 2 -50 26 -47 25 3 49 -22 40 -43 -6 -17 -37 -20 -53 -4 -8 8 -13 7 -18 -1 -22 -36 64 -46 98 -11 20 20 21 23 7 49 -10 17 -26 28 -43 30 -19 2 -27 9 -27 23 0 15 7 19 35 19 19 0 35 5 35 10 0 6 -22 10 -50 10 l-50 0 0 -35z" />
<path d="M10249 9498 c0 -2 -1 -220 -3 -485 l-3 -483 313 0 312 0 -2 483 -1 482 -307 3 c-170 1 -308 1 -309 0z m601 -488 l0 -470 -295 0 -295 0 0 470 0 470 295 0 295 0 0 -470z" />
<path d="M10530 9093 c-27 -10 -40 -36 -40 -83 0 -59 18 -83 60 -83 42 0 60 24 60 83 0 64 -34 99 -80 83z m38 -35 c13 -13 16 -66 6 -92 -14 -37 -54 -4 -54 44 0 24 17 60 28 60 5 0 13 -5 20 -12z" />
<path d="M10393 9073 c-28 -19 -30 -37 -3 -28 18 6 20 2 20 -54 0 -54 2 -61 20 -61 18 0 20 7 20 58 0 100 -12 117 -57 85z" />
<path d="M10646 9068 c-20 -29 -21 -87 0 -116 10 -15 25 -22 48 -22 39 0 56 15 56 51 0 36 -23 53 -60 45 -33 -6 -35 -4 -19 25 8 16 16 19 41 14 23 -6 29 -4 26 6 -3 8 -21 15 -40 17 -28 2 -40 -2 -52 -20z m69 -78 c8 -24 -1 -40 -21 -40 -17 0 -28 24 -20 45 8 22 34 18 41 -5z" />
<path d="M11407 9493 c-4 -3 -7 -222 -7 -485 l0 -478 310 0 310 0 -2 483 -3 482 -301 3 c-165 1 -303 -1 -307 -5z m593 -483 l0 -470 -290 0 -290 0 0 470 0 470 290 0 290 0 0 -470z" />
<path d="M11547 9070 c-29 -18 -23 -36 7 -24 14 5 16 -3 16 -55 0 -48 3 -61 15 -61 12 0 15 16 15 80 0 87 -4 92 -53 60z" />
<path d="M11672 9082 c-22 -15 -32 -70 -19 -110 11 -33 16 -37 49 -40 28 -2 40 2 52 20 20 29 21 87 0 116 -15 22 -57 29 -82 14z m59 -39 c11 -28 4 -79 -12 -89 -28 -17 -51 53 -33 100 9 25 33 19 45 -11z" />
<path d="M11790 9080 c0 -5 16 -10 35 -10 19 0 35 -4 35 -9 0 -5 -11 -34 -25 -65 -30 -67 -30 -66 -7 -66 12 0 25 20 45 68 15 37 27 73 27 80 0 8 -18 12 -55 12 -30 0 -55 -4 -55 -10z" />
<path d="M12560 9015 l0 -485 310 0 310 0 0 485 0 485 -310 0 -310 0 0 -485z m610 -5 l0 -470 -297 2 -298 3 -3 468 -2 467 300 0 300 0 0 -470z" />
<path d="M12713 9073 c-28 -19 -30 -37 -3 -28 18 6 20 2 20 -54 0 -45 4 -61 14 -61 20 0 27 40 20 105 -7 58 -15 64 -51 38z" />
<path d="M12826 9074 c-18 -18 -22 -95 -6 -125 8 -14 21 -19 50 -19 47 0 60 18 60 83 0 30 -6 49 -18 60 -23 21 -66 22 -86 1z m64 -23 c14 -28 12 -64 -5 -87 -15 -19 -15 -19 -30 0 -25 32 -17 106 11 106 7 0 18 -9 24 -19z" />
<path d="M12958 9065 c-8 -18 -8 -28 1 -39 8 -10 9 -16 1 -21 -14 -8 -13 -48 2 -63 7 -7 28 -12 48 -12 20 0 41 5 48 12 14 14 16 54 2 63 -5 3 -7 20 -3 36 7 37 -7 49 -55 49 -25 0 -35 -6 -44 -25z m72 -15 c0 -13 -7 -20 -20 -20 -13 0 -20 7 -20 20 0 13 7 20 20 20 13 0 20 -7 20 -20z m5 -75 c0 -22 -31 -33 -47 -17 -17 17 -1 44 24 40 15 -2 23 -10 23 -23z" />
<path d="M6412 9368 l3 -123 603 -3 602 -2 0 125 0 125 -605 0 -606 0 3 -122z" />
<path d="M12428 8153 l-278 -3 0 -260 0 -260 440 0 440 0 0 260 0 260 -127 0 c-71 0 -144 2 -163 3 -19 2 -160 2 -312 0z m592 -258 l0 -245 -430 0 -430 0 0 245 0 245 430 0 430 0 0 -245z" />
<path d="M12413 7953 c-28 -19 -30 -37 -3 -30 18 5 20 0 20 -54 0 -52 2 -59 20 -59 18 0 20 7 20 80 0 87 -9 97 -57 63z" />
<path d="M12532 7961 c-31 -19 -31 -123 0 -142 21 -14 65 -10 78 6 21 25 24 92 6 120 -17 26 -57 33 -84 16z m56 -65 c4 -55 -9 -76 -33 -56 -28 23 -17 114 14 108 12 -2 17 -17 19 -52z" />
<path d="M12654 7949 c-17 -19 -17 -23 -3 -47 11 -21 23 -27 47 -27 18 0 32 -5 32 -11 0 -21 -27 -35 -54 -28 -28 7 -37 -10 -10 -20 56 -21 99 13 99 79 0 23 -6 49 -14 58 -19 24 -74 22 -97 -4z m71 -29 c0 -38 -39 -35 -43 3 -3 25 0 28 20 25 17 -2 23 -9 23 -28z" />
<path d="M2120 7890 l0 -260 445 0 445 0 0 260 0 260 -445 0 -445 0 0 -260z m875 3 l0 -243 -432 0 -433 0 0 238 c0 131 3 242 7 245 3 4 198 6 432 5 l426 -3 0 -242z" />
<path d="M2393 7953 c-28 -19 -30 -37 -3 -28 18 6 20 2 20 -54 0 -48 3 -61 15 -61 12 0 15 16 15 80 0 86 -5 93 -47 63z" />
<path d="M2502 7958 c-20 -20 -13 -27 24 -25 52 3 53 -17 5 -63 -23 -22 -41 -44 -41 -50 0 -6 24 -10 55 -10 30 0 55 5 55 10 0 6 -17 10 -37 10 l-37 0 37 38 c55 56 47 102 -18 102 -17 0 -36 -5 -43 -12z" />
<path d="M2653 7953 c-28 -19 -30 -37 -3 -30 18 5 20 0 20 -54 0 -52 2 -59 20 -59 18 0 20 7 20 80 0 87 -9 97 -57 63z" />
<path d="M3200 7890 l0 -260 265 0 265 0 0 260 0 260 -265 0 -265 0 0 -260z m518 3 l-3 -248 -250 0 -250 0 -3 235 c-1 129 0 240 2 247 4 10 63 13 256 13 l250 0 -2 -247z" />
<path d="M3308 7952 c-33 -20 -38 -47 -8 -37 18 6 20 2 20 -48 0 -40 4 -56 15 -61 9 -3 18 0 21 8 9 22 0 149 -11 152 -5 1 -22 -5 -37 -14z" />
<path d="M3414 7956 c-25 -19 -9 -34 17 -18 16 10 24 10 35 1 22 -18 18 -28 -31 -76 -25 -24 -43 -49 -40 -54 11 -18 115 -7 115 12 0 5 -17 9 -37 9 l-37 0 37 34 c41 37 46 64 19 89 -23 21 -52 22 -78 3z" />
<path d="M3549 7949 c-18 -18 -21 -30 -16 -72 10 -109 117 -102 117 8 0 75 -55 110 -101 64z m71 -54 c0 -43 -9 -65 -26 -65 -32 0 -46 77 -18 105 22 22 44 2 44 -40z" />
<path d="M3926 8007 c1 -78 2 -195 3 -259 l1 -118 370 0 370 0 0 260 0 260 -372 0 -373 0 1 -143z m732 -114 l-3 -248 -357 -3 -358 -2 0 250 0 250 360 0 360 0 -2 -247z" />
<path d="M4148 7952 c-32 -19 -37 -37 -9 -29 16 4 20 -3 25 -54 5 -42 11 -59 21 -59 12 0 15 17 15 80 0 87 -4 92 -52 62z" />
<path d="M4261 7951 c-14 -11 -21 -23 -17 -30 6 -9 11 -9 22 0 12 10 14 4 14 -34 0 -55 8 -77 26 -77 11 0 14 18 14 80 0 70 -2 80 -17 80 -10 0 -29 -9 -42 -19z" />
<path d="M4372 7958 c-7 -7 -12 -24 -12 -38 0 -35 17 -50 57 -50 31 0 33 -2 23 -21 -8 -14 -19 -19 -40 -17 -16 2 -29 -1 -30 -7 -1 -16 63 -17 83 -3 26 20 34 91 13 123 -18 28 -72 35 -94 13z m67 -27 c8 -14 7 -22 -4 -31 -19 -16 -45 -6 -45 18 0 36 33 45 49 13z" />
<path d="M4870 7890 l0 -260 283 2 282 3 -1 255 0 255 -282 3 -282 2 0 -260z m550 0 l0 -250 -270 0 -270 0 0 250 0 250 270 0 270 0 0 -250z" />
<path d="M4988 7952 c-33 -20 -38 -47 -9 -37 18 5 20 0 23 -52 2 -44 7 -58 18 -58 12 0 15 15 15 79 0 45 -4 80 -10 82 -5 1 -22 -5 -37 -14z" />
<path d="M5102 7950 c-35 -21 -36 -48 -1 -30 18 10 19 7 19 -50 0 -51 3 -60 18 -60 13 0 17 8 17 33 -4 110 -6 127 -12 127 -5 0 -23 -9 -41 -20z" />
<path d="M5206 7955 c-19 -20 -20 -37 -4 -53 10 -10 10 -14 0 -21 -24 -15 -10 -63 20 -73 55 -19 113 38 74 71 -12 10 -13 16 -3 32 26 42 -50 81 -87 44z m61 -21 c8 -21 -13 -42 -28 -27 -13 13 -5 43 11 43 6 0 13 -7 17 -16z m3 -69 c15 -18 5 -35 -20 -35 -22 0 -34 15 -26 35 7 19 30 19 46 0z" />
<path d="M5640 7890 l0 -260 388 0 387 0 2 260 2 260 -389 0 -390 0 0 -260z m760 0 l0 -250 -370 0 -370 0 0 250 0 250 370 0 370 0 0 -250z" />
<path d="M5878 7952 c-16 -9 -28 -22 -28 -29 0 -16 12 -17 28 -1 9 9 12 -2 12 -50 0 -56 2 -62 20 -62 19 0 21 5 18 77 -2 42 -7 78 -13 79 -5 2 -22 -4 -37 -14z" />
<path d="M5998 7954 c-16 -8 -28 -18 -28 -23 0 -16 13 -21 27 -10 11 9 13 0 13 -50 0 -54 2 -61 20 -61 18 0 20 7 20 58 0 60 -8 102 -19 102 -3 -1 -18 -8 -33 -16z" />
<path d="M6090 7961 c0 -11 25 -21 51 -21 24 0 24 4 -6 -64 -29 -66 -29 -66 -10 -66 14 0 75 118 75 146 0 10 -15 14 -55 14 -30 0 -55 -4 -55 -9z" />
<path d="M6590 7890 l0 -260 250 0 250 0 0 260 0 260 -250 0 -250 0 0 -260z m485 0 l0 -245 -232 -3 -233 -2 0 250 0 250 233 -2 232 -3 0 -245z" />
<path d="M6696 7947 c-20 -17 -26 -26 -17 -31 6 -4 18 -2 26 4 13 11 15 4 15 -49 0 -48 3 -61 15 -61 12 0 15 16 15 80 0 89 -6 95 -54 57z" />
<path d="M6826 7955 c-10 -8 -23 -16 -29 -18 -6 -2 -7 -9 -3 -16 6 -9 11 -9 21 -1 12 10 15 0 17 -52 2 -48 7 -63 18 -63 12 0 15 15 15 79 0 83 -7 95 -39 71z" />
<path d="M6929 7951 c-34 -28 -35 -104 0 -132 30 -24 56 -24 81 1 26 26 25 45 -1 71 -14 14 -28 19 -45 15 -17 -5 -24 -2 -24 8 0 22 24 36 49 29 18 -4 22 -2 19 8 -7 22 -52 22 -79 0z m59 -93 c-2 -15 -10 -23 -23 -23 -13 0 -21 8 -23 23 -3 18 1 22 23 22 22 0 26 -4 23 -22z" />
<path d="M7290 7890 l0 -260 360 0 360 0 0 260 0 260 -360 0 -360 0 0 -260z m710 0 l0 -250 -346 2 -345 3 -6 232 c-3 128 -3 239 0 248 6 13 49 15 352 15 l345 0 0 -250z" />
<path d="M7508 7952 c-33 -19 -37 -37 -8 -29 18 5 20 0 20 -38 0 -53 8 -75 26 -75 12 0 14 15 12 77 -2 42 -7 78 -13 79 -5 2 -22 -4 -37 -14z" />
<path d="M7621 7951 c-14 -11 -21 -23 -17 -30 6 -9 11 -9 22 0 12 10 14 2 14 -50 0 -54 2 -61 20 -61 18 0 20 7 20 80 0 70 -2 80 -17 80 -10 0 -29 -9 -42 -19z" />
<path d="M7727 7963 c-4 -3 -7 -24 -7 -46 0 -37 2 -39 25 -35 14 3 33 0 42 -7 27 -20 -1 -48 -40 -39 -22 5 -28 3 -25 -7 6 -18 75 -24 94 -8 17 14 18 61 2 77 -7 7 -24 12 -39 12 -20 0 -27 5 -25 17 2 12 12 17 31 18 16 0 30 6 32 13 3 8 -9 12 -39 12 -25 0 -48 -3 -51 -7z" />
<path d="M8200 7890 l0 -260 260 0 260 0 0 260 0 260 -260 0 -260 0 0 -260z m505 0 l0 -245 -247 -3 -248 -2 0 243 c0 134 3 247 7 251 4 3 115 5 247 4 l241 -3 0 -245z" />
<path d="M8316 7947 c-18 -15 -25 -26 -18 -31 6 -3 13 -2 17 4 14 22 25 -4 25 -56 0 -41 4 -54 15 -54 12 0 15 16 15 80 0 89 -6 95 -54 57z" />
<path d="M8438 7953 c-16 -8 -28 -18 -28 -22 0 -16 14 -21 27 -10 11 9 13 1 14 -42 1 -30 1 -57 0 -61 0 -5 8 -8 19 -8 18 0 20 7 20 80 0 86 -3 90 -52 63z" />
<path d="M8555 7918 c-45 -68 -45 -78 5 -78 29 0 40 -4 40 -15 0 -8 6 -15 13 -15 16 0 41 54 27 58 -5 2 -10 26 -10 53 0 42 -3 49 -20 49 -12 0 -32 -19 -55 -52z m41 -23 c-1 -17 -7 -25 -18 -25 -21 0 -22 4 -6 30 17 27 26 25 24 -5z" />
<path d="M8910 7890 l0 -260 360 0 360 0 0 260 0 260 -360 0 -360 0 0 -260z m708 3 l-3 -248 -342 -3 -343 -2 0 250 0 250 345 0 345 0 -2 -247z" />
<path d="M9128 7954 c-32 -17 -38 -39 -8 -31 18 5 20 0 20 -54 0 -52 2 -59 20 -59 18 0 20 7 20 80 0 87 -3 91 -52 64z" />
<path d="M9243 7953 c-13 -8 -23 -20 -23 -25 0 -6 10 -8 23 -5 21 6 22 4 19 -53 -4 -55 -2 -60 17 -60 20 0 21 6 21 80 0 87 -9 97 -57 63z" />
<path d="M9353 7964 c-26 -11 -12 -25 23 -22 44 4 57 -17 20 -32 -32 -12 -34 -28 -3 -32 14 -2 22 -10 22 -23 0 -20 -17 -24 -55 -14 -8 2 -15 -3 -15 -11 0 -17 43 -25 81 -16 29 8 41 43 21 63 -12 13 -13 20 -4 34 18 28 -3 54 -44 56 -19 1 -40 0 -46 -3z" />
<path d="M9830 7890 l0 -260 250 0 250 0 0 260 0 260 -250 0 -250 0 0 -260z m486 80 c0 -91 -2 -202 -4 -247 l-4 -83 -234 0 -234 0 0 250 0 250 238 -2 237 -3 1 -165z" />
<path d="M9948 7954 c-16 -8 -28 -21 -28 -30 0 -12 4 -12 20 -4 19 10 20 8 20 -48 0 -61 4 -74 23 -66 15 5 16 156 2 160 -5 2 -22 -4 -37 -12z" />
<path d="M10057 7949 c-30 -23 -28 -45 4 -29 18 10 19 7 19 -50 0 -47 3 -60 15 -60 12 0 15 16 15 80 0 88 -5 94 -53 59z" />
<path d="M10165 7957 c-13 -10 -15 -16 -6 -21 6 -4 18 -3 25 3 18 15 46 3 46 -19 0 -10 -18 -34 -40 -53 -54 -46 -52 -57 15 -57 30 0 55 5 55 10 0 6 -13 10 -30 10 -16 0 -30 3 -30 8 0 4 14 19 30 34 31 27 39 65 18 86 -16 16 -60 15 -83 -1z" />
<path d="M10520 7890 l0 -260 355 0 355 0 0 260 0 260 -355 0 -355 0 0 -260z m698 3 l-3 -248 -25 1 c-14 0 -168 1 -342 2 l-318 2 0 245 0 245 345 0 345 0 -2 -247z" />
<path d="M10738 7954 c-32 -17 -38 -39 -8 -31 18 5 20 0 20 -54 0 -45 3 -59 15 -59 8 0 17 10 20 23 9 34 2 130 -10 133 -5 2 -22 -4 -37 -12z" />
<path d="M10853 7953 c-28 -19 -30 -37 -3 -30 17 4 19 -1 22 -51 2 -45 7 -58 21 -60 15 -3 17 6 17 77 0 71 -2 81 -17 80 -10 0 -28 -7 -40 -16z" />
<path d="M10973 7953 c-28 -19 -30 -37 -3 -30 18 5 20 0 20 -55 0 -51 2 -59 18 -56 14 3 17 15 17 78 0 82 -10 94 -52 63z" />
<path d="M11430 7890 l0 -260 258 2 257 3 3 258 2 257 -260 0 -260 0 0 -260z m500 5 l0 -245 -245 0 -245 0 0 245 0 245 245 0 245 0 0 -245z" />
<path d="M11547 7949 c-30 -23 -28 -45 4 -29 18 10 19 7 19 -50 0 -47 3 -60 15 -60 12 0 15 16 15 80 0 88 -5 94 -53 59z" />
<path d="M11668 7954 c-32 -17 -38 -39 -8 -31 18 5 20 0 20 -54 0 -52 2 -59 20 -59 18 0 20 7 20 80 0 87 -3 91 -52 64z" />
<path d="M11772 7958 c-20 -25 -23 -75 -8 -112 13 -31 19 -36 49 -36 45 0 61 21 61 80 0 27 -6 55 -13 64 -16 19 -74 21 -89 4z m66 -62 c4 -55 -9 -76 -33 -56 -9 7 -15 29 -15 55 0 46 6 57 30 53 10 -2 16 -18 18 -52z" />
<path d="M12732 5133 l3 -2288 365 0 365 0 3 2288 2 2287 -370 0 -370 0 2 -2287z" />
<path d="M3690 6940 l0 -260 860 0 860 0 0 260 0 260 -860 0 -860 0 0 -260z m1700 -5 l0 -245 -845 0 -845 0 0 245 0 245 845 0 845 0 0 -245z" />
<path d="M4378 6992 c-33 -19 -38 -47 -9 -37 18 5 20 0 23 -52 2 -38 7 -58 16 -58 6 0 12 3 12 8 0 4 0 41 0 82 0 41 -3 75 -7 75 -5 0 -20 -8 -35 -18z" />
<path d="M4480 6995 c-9 -11 -10 -19 -3 -26 8 -8 13 -7 17 0 11 16 46 13 53 -5 4 -10 -9 -30 -36 -58 -56 -57 -54 -68 14 -64 60 3 75 20 25 28 l-32 5 31 29 c53 51 36 106 -32 106 -14 0 -30 -7 -37 -15z" />
<path d="M4628 6999 c-31 -18 -20 -30 22 -23 35 6 40 4 40 -13 0 -10 -18 -37 -40 -58 -22 -21 -40 -45 -40 -52 0 -14 38 -17 89 -7 43 9 39 24 -6 24 l-37 0 32 33 c20 20 32 43 32 60 0 40 -51 60 -92 36z" />
<path d="M5710 6940 l0 -260 524 0 525 0 3 248 c2 136 1 253 -1 260 -2 9 -116 12 -527 12 l-524 0 0 -260z m808 240 l232 0 0 -245 0 -245 -515 0 -515 0 0 245 0 245 203 3 c111 2 238 2 282 0 44 -1 185 -3 313 -3z" />
<path d="M6073 6989 c-34 -22 -36 -47 -3 -29 18 9 19 5 22 -52 2 -48 7 -63 18 -63 12 0 15 15 15 79 0 44 -4 81 -10 82 -5 2 -25 -6 -42 -17z" />
<path d="M6185 6997 c-24 -18 -11 -41 14 -25 22 13 51 4 51 -16 0 -7 -18 -30 -40 -50 -58 -52 -54 -68 15 -64 62 3 74 20 20 28 l-35 5 34 27 c42 34 51 63 25 89 -22 22 -57 25 -84 6z" />
<path d="M6320 7000 c-20 -12 -6 -24 30 -24 35 -1 41 -17 11 -31 -28 -13 -27 -21 5 -29 17 -5 24 -12 22 -24 -3 -13 -13 -16 -46 -14 -47 3 -56 -12 -17 -30 36 -16 89 1 93 31 2 12 -4 31 -14 42 -9 10 -12 19 -7 19 20 0 24 33 7 51 -18 20 -60 25 -84 9z" />
<path d="M6880 6980 l0 -220 230 0 230 0 0 220 0 220 -230 0 -230 0 0 -220z" />
<path d="M7890 6940 l0 -260 550 0 550 0 0 260 0 260 -550 0 -550 0 0 -260z m913 242 l167 -2 0 -245 0 -245 -530 0 -530 0 0 245 0 244 78 3 c87 3 561 3 815 0z" />
<path d="M8268 6992 c-33 -20 -38 -47 -9 -37 18 5 20 0 23 -52 2 -44 7 -58 18 -58 12 0 15 15 15 79 0 45 -4 80 -10 82 -5 1 -22 -5 -37 -14z" />
<path d="M8374 6996 c-24 -18 -11 -32 18 -19 59 26 63 -18 8 -72 -56 -55 -53 -67 17 -63 66 3 89 28 27 28 l-38 0 37 38 c43 44 46 64 15 86 -28 20 -58 20 -84 2z" />
<path d="M8531 6954 c-23 -32 -41 -61 -41 -66 0 -4 17 -8 39 -8 31 0 40 -4 44 -21 6 -22 32 -22 32 0 0 6 7 16 15 21 13 9 13 11 0 20 -10 6 -15 26 -15 57 0 69 -23 68 -74 -3z m39 -24 c0 -23 -4 -30 -20 -30 -24 0 -25 4 -4 35 21 32 24 31 24 -5z" />
<path d="M9238 7195 c-3 -3 -4 -119 -2 -258 l4 -252 540 -3 540 -2 0 260 0 260 -538 0 c-296 0 -541 -2 -544 -5z m1020 -14 l52 -1 0 -245 0 -245 -530 0 -530 0 0 245 0 244 63 3 c50 2 722 1 945 -1z" />
<path d="M9597 6989 c-30 -23 -28 -45 4 -29 18 10 19 7 19 -55 0 -51 3 -65 15 -65 12 0 15 16 15 85 0 93 -5 99 -53 64z" />
<path d="M9718 6999 c-30 -17 -21 -30 17 -23 28 5 36 3 41 -11 5 -13 -6 -30 -39 -62 -26 -25 -45 -48 -43 -51 7 -11 116 -8 116 3 0 6 -15 11 -35 13 l-35 3 30 26 c46 38 54 60 35 89 -17 26 -56 32 -87 13z" />
<path d="M9847 7003 c-4 -3 -7 -24 -7 -45 0 -37 1 -38 34 -38 22 0 36 -6 40 -16 10 -26 -4 -36 -40 -29 -27 5 -34 3 -34 -9 0 -23 49 -32 79 -15 50 28 32 99 -24 99 -18 0 -23 4 -19 15 4 9 19 15 35 15 19 0 29 5 29 15 0 11 -11 15 -43 15 -24 0 -47 -3 -50 -7z" />
<path d="M10440 6980 l0 -220 245 0 245 0 0 220 0 220 -245 0 -245 0 0 -220z" />
<path d="M3080 6975 l0 -215 243 0 242 0 2 215 3 215 -245 0 -245 0 0 -215z" />
<path d="M1580 6133 c0 -768 16 -2352 23 -2360 2 -1 164 -5 362 -8 l358 -6 -6 683 c-4 376 -7 1109 -7 1631 l0 947 -365 0 -365 0 0 -887z" />
<path d="M3832 6193 l-532 -3 2 -258 3 -257 533 -3 532 -2 0 265 c0 146 -1 264 -2 263 -2 -2 -243 -4 -536 -5z m518 -242 c0 -126 3 -236 6 -245 6 -14 -44 -16 -515 -16 l-521 0 0 245 0 245 515 0 515 0 0 -229z" />
<path d="M3945 6013 c-22 -6 -36 -23 -29 -35 3 -4 13 -2 23 4 23 14 51 4 51 -18 0 -9 -18 -33 -40 -53 -56 -51 -52 -61 20 -61 33 0 60 4 60 10 0 6 -16 10 -35 10 -19 0 -35 4 -35 8 0 4 16 23 35 42 38 37 42 48 23 72 -15 19 -45 27 -73 21z" />
<path d="M3668 5994 c-35 -19 -37 -38 -3 -30 25 6 25 5 25 -54 0 -54 2 -60 21 -60 15 0 19 4 15 16 -3 9 -6 45 -6 80 0 70 -5 74 -52 48z" />
<path d="M3775 6000 c-8 -12 11 -19 44 -17 33 3 38 -21 7 -33 -31 -11 -34 -30 -6 -30 25 0 38 -29 20 -40 -7 -5 -24 -4 -37 1 -32 12 -33 12 -33 -5 0 -29 78 -36 104 -10 21 20 20 38 -1 60 -13 13 -14 19 -5 22 15 5 16 34 0 50 -15 15 -84 16 -93 2z" />
<path d="M7286 6193 l-348 -3 6 -258 6 -257 393 0 392 0 0 260 0 260 -50 0 c-27 1 -207 -1 -399 -2z m434 -258 l0 -245 -380 0 -380 0 0 245 0 245 380 0 380 0 0 -245z" />
<path d="M7305 6013 c-30 -7 -41 -21 -27 -35 10 -10 15 -10 21 1 5 7 17 11 27 9 34 -6 27 -36 -15 -75 -58 -51 -54 -63 19 -63 33 0 60 4 60 10 0 8 -37 15 -62 11 -15 -2 -7 12 27 50 39 43 40 48 23 71 -15 19 -45 27 -73 21z" />
<path d="M7433 6005 c-27 -19 -31 -66 -8 -85 8 -7 28 -10 45 -8 33 5 38 -3 14 -26 -10 -11 -24 -14 -41 -10 -19 5 -24 3 -21 -7 6 -19 59 -23 82 -6 24 17 33 104 13 129 -20 25 -59 31 -84 13z m57 -31 c11 -12 10 -18 -3 -32 -16 -15 -18 -15 -33 0 -19 18 -12 48 9 48 8 0 20 -7 27 -16z" />
<path d="M7173 5993 c-28 -19 -30 -37 -3 -30 18 5 20 0 20 -54 0 -52 2 -59 20 -59 18 0 19 6 17 77 -2 85 -12 96 -54 66z" />
<path d="M8050 5940 l0 -260 26 -6 c14 -4 78 -4 142 -1 65 4 233 7 375 7 l257 0 0 260 0 260 -400 0 -400 0 0 -260z m788 -7 l2 -243 -390 0 -390 0 0 245 0 245 388 -2 387 -3 3 -242z" />
<path d="M8552 6012 c-31 -5 -45 -34 -28 -58 11 -15 11 -20 0 -32 -20 -19 -17 -50 5 -62 26 -14 74 -13 89 2 14 14 16 54 2 63 -6 4 -5 13 3 25 21 35 -19 71 -71 62z m43 -42 c0 -8 -10 -16 -22 -18 -18 -3 -23 2 -23 18 0 16 5 21 23 18 12 -2 22 -10 22 -18z m0 -75 c0 -30 -39 -27 -43 3 -3 20 0 23 20 20 15 -2 23 -10 23 -23z" />
<path d="M8278 5994 c-16 -8 -28 -19 -28 -24 0 -15 18 -21 27 -8 5 8 10 -11 13 -47 4 -47 9 -61 23 -63 15 -3 17 6 17 77 0 88 -3 92 -52 65z" />
<path d="M8383 5995 c-7 -21 4 -32 19 -17 17 17 45 15 52 -4 4 -9 -10 -32 -39 -63 -25 -26 -45 -51 -45 -55 0 -3 27 -6 60 -6 33 0 60 4 60 10 0 6 -16 10 -35 10 -19 0 -35 2 -35 4 0 2 16 20 35 39 55 55 43 97 -27 97 -26 0 -41 -5 -45 -15z" />
<path d="M9297 6193 c-9 -8 -9 -196 0 -380 l6 -143 419 0 418 0 0 265 0 265 -418 0 c-230 0 -422 -3 -425 -7z m823 -258 l0 -245 -405 0 -405 0 0 245 0 245 405 0 405 0 0 -245z" />
<path d="M9768 6014 c-17 -16 -6 -24 33 -24 29 0 40 -4 36 -12 -3 -7 -17 -39 -31 -71 -26 -57 -26 -58 -6 -55 16 2 29 22 51 77 16 41 28 76 26 78 -9 8 -102 15 -109 7z" />
<path d="M9523 5993 c-28 -19 -30 -37 -3 -30 18 5 20 0 20 -54 0 -52 2 -59 20 -59 18 0 20 7 20 80 0 87 -9 97 -57 63z" />
<path d="M9631 5996 c-16 -19 5 -32 24 -16 8 7 22 10 30 6 27 -10 16 -44 -25 -79 -55 -47 -52 -57 20 -57 33 0 60 4 60 10 0 9 -23 14 -57 13 -18 -1 -17 1 22 40 55 55 43 97 -26 97 -20 0 -42 -6 -48 -14z" />
<path d="M10488 6193 l-58 -4 0 -254 0 -255 670 0 670 0 -2 258 -3 257 -610 1 c-335 0 -636 -1 -667 -3z m1262 -258 l0 -245 -655 0 -655 0 0 245 0 245 655 0 655 0 0 -245z" />
<path d="M11033 6010 c-13 -5 -23 -14 -23 -19 0 -15 18 -23 25 -11 10 16 45 12 52 -6 4 -10 -10 -32 -41 -63 -26 -26 -43 -50 -40 -54 11 -11 112 -8 119 3 4 6 -8 10 -29 10 -42 0 -45 11 -13 37 52 40 56 86 10 104 -29 11 -31 11 -60 -1z" />
<path d="M11181 6007 c-63 -32 -40 -157 29 -157 40 0 66 33 54 68 -8 22 -16 28 -47 30 -39 3 -43 8 -28 31 6 8 19 12 35 9 36 -7 44 10 11 22 -31 12 -25 12 -54 -3z m47 -104 c-3 -31 -34 -44 -44 -19 -9 24 3 46 26 46 17 0 21 -5 18 -27z" />
<path d="M10908 5994 c-35 -19 -37 -38 -3 -30 25 6 25 5 25 -54 0 -47 3 -60 15 -60 12 0 15 16 15 80 0 87 -3 91 -52 64z" />
<path d="M4694 5933 l1 -258 385 0 385 0 3 258 2 257 -389 0 -389 0 2 -257z m756 2 l0 -245 -370 0 -370 0 0 245 0 245 370 0 370 0 0 -245z" />
<path d="M4888 5992 c-35 -21 -36 -36 -3 -28 25 6 25 5 25 -54 0 -47 3 -60 15 -60 12 0 15 16 15 80 0 87 -4 92 -52 62z" />
<path d="M4997 6003 c-15 -15 -5 -23 25 -21 24 2 33 -2 36 -14 2 -13 -3 -18 -17 -18 -12 0 -21 -6 -21 -15 0 -8 9 -15 19 -15 27 0 36 -19 18 -37 -12 -12 -19 -13 -36 -4 -27 15 -47 5 -30 -15 13 -16 62 -18 90 -4 21 12 26 49 8 67 -8 8 -7 16 2 31 10 17 10 23 0 36 -13 16 -81 23 -94 9z" />
<path d="M5153 5993 c-28 -19 -30 -37 -3 -30 18 5 20 0 20 -54 0 -52 2 -59 20 -59 18 0 20 7 20 80 0 87 -9 97 -57 63z" />
<path d="M5792 5933 l3 -258 388 0 387 0 3 258 3 257 -393 0 -393 0 2 -257z m768 2 l0 -245 -375 0 -375 0 0 245 0 245 375 0 375 0 0 -245z" />
<path d="M6270 6013 c-27 -10 -40 -36 -40 -83 0 -54 21 -80 63 -80 57 0 79 99 32 145 -25 26 -29 27 -55 18z m40 -42 c14 -28 12 -64 -5 -87 -15 -19 -15 -19 -30 0 -25 32 -17 106 11 106 7 0 18 -9 24 -19z" />
<path d="M5998 5992 c-35 -21 -36 -36 -2 -28 26 7 26 7 22 -51 -2 -49 0 -58 15 -61 15 -3 17 6 17 77 0 88 -4 93 -52 63z" />
<path d="M6095 6000 c-7 -12 11 -19 44 -17 34 3 38 -21 5 -33 -28 -11 -24 -25 10 -32 27 -4 31 -25 7 -38 -15 -7 -27 -8 -40 0 -14 7 -22 7 -27 -1 -17 -28 73 -40 100 -13 20 20 21 53 1 60 -12 5 -13 10 -4 20 6 7 9 23 7 36 -3 20 -10 23 -50 26 -25 2 -49 -2 -53 -8z" />
<path d="M10630 5230 l-205 -5 2 -240 c2 -132 3 -246 3 -252 0 -10 141 -13 670 -13 l670 0 -2 258 -3 257 -465 0 c-256 0 -557 -2 -670 -5z m1120 -255 l0 -245 -655 0 -655 0 0 245 0 245 655 0 655 0 0 -245z" />
<path d="M11042 5049 c-32 -12 -18 -30 18 -22 26 5 30 2 30 -16 0 -14 -6 -21 -20 -21 -27 0 -25 -28 2 -32 13 -2 24 -11 26 -21 3 -16 -2 -18 -37 -15 -46 4 -58 -12 -18 -26 42 -15 81 3 85 38 2 16 -2 32 -8 36 -9 6 -9 13 2 29 12 20 10 24 -11 42 -26 21 -35 22 -69 8z" />
<path d="M11170 5040 c-24 -24 -25 -38 -4 -69 13 -17 24 -22 46 -19 22 4 28 1 26 -11 -2 -11 -16 -17 -41 -19 -38 -3 -49 -15 -21 -26 80 -31 142 77 79 139 -29 30 -58 32 -85 5z m65 -35 c0 -13 -8 -21 -22 -23 -19 -3 -23 1 -23 23 0 22 4 26 23 23 14 -2 22 -10 22 -23z" />
<path d="M10922 5034 c-27 -19 -29 -38 -2 -29 19 6 20 2 20 -55 0 -50 3 -61 16 -58 8 2 15 6 15 11 -1 4 -1 39 -1 77 0 75 -7 83 -48 54z" />
<path d="M3300 4970 l0 -260 530 0 530 0 0 260 0 260 -530 0 -530 0 0 -260z m1040 5 l0 -245 -462 0 c-255 0 -479 -3 -498 -5 -19 -3 -40 -2 -46 2 -7 5 -13 91 -18 245 l-6 237 107 4 c60 1 291 4 516 5 l407 2 0 -245z" />
<path d="M3655 5024 l-30 -25 28 4 c27 4 27 4 27 -54 0 -53 2 -59 21 -59 15 0 19 4 15 16 -3 9 -6 45 -6 80 0 73 -8 78 -55 38z" />
<path d="M3765 5040 c-7 -11 -4 -12 40 -14 36 -1 42 -29 8 -34 -30 -4 -30 -30 -1 -34 13 -2 24 -11 26 -21 3 -16 -2 -18 -32 -16 -39 4 -58 -7 -36 -21 23 -15 77 -12 94 6 20 19 20 25 2 49 -10 14 -11 25 -3 42 14 32 -6 53 -54 53 -21 0 -41 -4 -44 -10z" />
<path d="M3907 5044 c-16 -16 -5 -23 31 -21 27 1 37 -2 37 -13 0 -8 -10 -16 -22 -18 -30 -4 -30 -30 -1 -34 27 -4 36 -33 13 -42 -9 -3 -25 -1 -35 4 -23 12 -40 -7 -19 -21 50 -31 124 12 95 55 -10 16 -10 25 -2 39 17 27 -4 52 -50 55 -22 2 -43 0 -47 -4z" />
<path d="M4672 4973 l3 -258 379 -3 c267 -1 382 1 386 9 4 6 8 123 9 260 l1 249 -390 0 -390 0 2 -257z m758 3 l0 -246 -370 0 -370 0 0 243 0 244 370 2 370 2 0 -245z" />
<path d="M4867 5029 c-30 -23 -28 -45 4 -29 18 10 19 7 19 -50 0 -54 2 -60 21 -60 15 0 19 4 15 16 -3 9 -6 45 -6 80 0 71 -7 77 -53 43z" />
<path d="M4977 5043 c-15 -15 -5 -23 25 -21 38 3 53 -26 18 -35 -27 -7 -26 -25 2 -29 27 -4 36 -33 13 -42 -9 -3 -26 -1 -37 5 -23 12 -33 6 -25 -16 8 -18 77 -21 95 -3 16 16 15 50 0 67 -10 11 -10 14 0 18 15 6 16 35 0 51 -13 13 -80 17 -91 5z" />
<path d="M5136 5001 c-20 -27 -36 -53 -36 -59 0 -6 16 -14 35 -18 20 -3 35 -12 35 -20 0 -8 8 -14 18 -14 19 0 49 53 32 58 -5 2 -10 26 -10 53 0 42 -3 49 -19 49 -12 0 -34 -20 -55 -49z m34 -26 c0 -19 -5 -25 -20 -25 -20 0 -20 1 -3 25 22 30 23 30 23 0z" />
<path d="M5710 4976 c0 -194 3 -255 13 -258 6 -3 182 -3 390 0 l377 5 0 253 0 254 -390 0 -390 0 0 -254z m760 -1 l0 -245 -375 0 -375 0 0 238 c0 131 3 242 7 245 3 4 172 7 375 7 l368 0 0 -245z" />
<path d="M6052 5051 c-32 -8 -23 -26 12 -26 38 0 45 -22 11 -35 -29 -11 -25 -30 6 -30 13 0 19 -7 19 -21 0 -17 -5 -20 -34 -18 -39 4 -58 -7 -36 -21 56 -35 143 21 95 60 -11 9 -13 16 -5 24 5 5 10 20 10 32 0 26 -41 44 -78 35z" />
<path d="M5923 5033 c-28 -19 -30 -37 -3 -30 18 5 20 0 20 -54 0 -52 2 -59 20 -59 17 0 20 7 20 49 0 65 -10 111 -24 110 -6 0 -21 -7 -33 -16z" />
<path d="M6170 5005 c0 -44 0 -44 30 -39 36 8 52 -18 27 -43 -13 -14 -19 -14 -32 -3 -12 10 -19 10 -28 1 -16 -16 7 -31 49 -31 32 0 64 25 64 52 0 20 -33 49 -59 51 -13 1 -21 8 -21 19 0 14 8 18 35 18 19 0 35 5 35 10 0 6 -22 10 -50 10 l-50 0 0 -45z" />
<path d="M6840 4975 l0 -255 385 0 385 0 -2 253 -3 252 -382 3 -383 2 0 -255z m750 0 l0 -245 -365 0 -365 0 0 245 0 245 365 0 365 0 0 -245z" />
<path d="M7332 5050 c-43 -18 -53 -107 -16 -145 21 -21 67 -19 88 4 14 16 16 26 9 48 -8 23 -16 29 -47 31 -29 3 -36 7 -34 20 2 12 14 17 35 18 44 0 52 11 19 24 -15 5 -28 10 -29 9 -1 0 -12 -4 -25 -9z m43 -110 c0 -29 -32 -41 -41 -16 -9 24 4 48 23 44 12 -2 18 -12 18 -28z" />
<path d="M7060 5033 c-14 -9 -27 -18 -29 -19 -1 -1 0 -8 4 -14 5 -8 11 -8 19 -1 20 16 26 2 26 -56 0 -40 4 -53 15 -53 12 0 15 16 15 80 0 87 -5 94 -50 63z" />
<path d="M7167 5043 c-15 -15 -5 -23 24 -21 37 3 53 -20 20 -29 -26 -7 -28 -33 -2 -33 27 0 36 -19 19 -36 -11 -11 -21 -12 -40 -5 -30 11 -43 4 -27 -16 14 -16 62 -17 90 -3 21 12 26 49 8 67 -8 8 -7 16 2 31 10 17 10 23 0 36 -13 16 -81 23 -94 9z" />
<path d="M8030 4975 l0 -255 400 0 400 0 0 255 0 255 -400 0 -400 0 0 -255z m780 0 l0 -245 -380 0 -380 0 0 245 0 245 380 0 380 0 0 -245z" />
<path d="M8253 5024 l-28 -25 28 5 27 6 0 -60 c0 -47 3 -60 15 -60 12 0 15 16 15 80 0 90 -9 99 -57 54z" />
<path d="M8367 5043 c-15 -15 -5 -23 25 -21 24 2 33 -2 36 -14 2 -13 -3 -18 -17 -18 -12 0 -21 -6 -21 -15 0 -8 9 -15 19 -15 27 0 36 -19 18 -37 -12 -12 -19 -13 -36 -4 -27 15 -47 5 -30 -15 13 -16 62 -18 90 -4 20 11 26 54 9 65 -6 4 -5 15 2 30 15 34 -4 55 -52 55 -20 0 -40 -3 -43 -7z" />
<path d="M8490 5040 c0 -5 18 -10 40 -10 22 0 40 -2 40 -4 0 -2 -13 -34 -30 -71 -28 -63 -29 -66 -9 -63 14 2 28 21 45 63 43 101 45 95 -25 95 -34 0 -61 -4 -61 -10z" />
<path d="M9280 4975 l0 -255 430 0 430 0 0 255 0 255 -430 0 -430 0 0 -255z m843 163 c4 -46 7 -154 7 -240 l0 -158 -420 0 -420 0 0 240 0 240 414 0 413 0 6 -82z" />
<path d="M9772 5044 c-23 -16 -29 -48 -11 -60 8 -4 8 -9 0 -17 -15 -15 -14 -50 1 -65 17 -17 74 -15 92 4 19 18 21 45 4 62 -8 8 -8 15 1 26 21 25 -12 66 -53 66 -6 0 -22 -7 -34 -16z m53 -34 c0 -8 -8 -16 -17 -18 -13 -2 -18 3 -18 18 0 15 5 20 18 18 9 -2 17 -10 17 -18z m13 -72 c4 -19 -35 -35 -50 -20 -6 6 -8 18 -4 27 8 21 50 16 54 -7z" />
<path d="M9513 5033 c-28 -19 -30 -37 -3 -30 18 5 20 0 20 -54 0 -52 2 -59 20 -59 18 0 20 7 20 80 0 87 -9 97 -57 63z" />
<path d="M9615 5040 c-8 -12 11 -19 44 -17 30 2 40 -22 12 -30 -26 -7 -28 -33 -2 -33 10 0 21 -7 25 -15 7 -20 -23 -35 -50 -25 -26 10 -38 2 -23 -17 16 -18 74 -17 93 3 20 20 21 53 1 60 -13 5 -13 9 0 27 23 33 3 57 -50 57 -24 0 -47 -5 -50 -10z" />
<path d="M4427 4263 l-357 -3 2 -258 3 -257 558 -2 557 -1 0 264 0 264 -202 -2 c-112 -2 -364 -4 -561 -5z m753 -258 l0 -245 -545 0 -545 0 0 245 0 245 545 0 545 0 0 -245z" />
<path d="M4445 4056 c-32 -26 -27 -49 5 -28 19 12 20 9 20 -48 0 -47 3 -60 15 -60 13 0 15 13 13 77 -2 42 -7 78 -13 80 -5 1 -23 -8 -40 -21z" />
<path d="M4577 4027 c-21 -30 -37 -59 -37 -65 0 -7 16 -12 40 -12 29 0 40 -4 40 -15 0 -8 7 -15 15 -15 8 0 15 7 15 15 0 8 5 15 10 15 6 0 10 7 10 15 0 8 -4 15 -10 15 -5 0 -10 23 -10 50 0 69 -24 68 -73 -3z m40 -44 c-3 -3 -13 -3 -21 -1 -15 3 -15 6 1 28 l18 25 3 -23 c2 -13 1 -26 -1 -29z" />
<path d="M4700 4065 c-13 -16 -11 -17 35 -19 37 -1 41 -27 5 -37 l-25 -6 27 -11 c32 -13 39 -24 28 -41 -5 -10 -19 -12 -45 -7 -43 8 -46 -12 -3 -26 50 -17 104 24 81 61 -6 9 -8 31 -5 50 3 22 0 36 -9 42 -22 14 -75 10 -89 -6z" />
<path d="M5677 4263 c-4 -3 -7 -120 -7 -260 l0 -253 530 0 530 0 0 260 0 260 -523 0 c-288 0 -527 -3 -530 -7z m1043 -258 l0 -245 -515 0 -514 0 -3 245 -3 245 518 0 517 0 0 -245z" />
<path d="M6027 4062 c-29 -18 -31 -39 -3 -34 13 2 16 -6 17 -45 1 -26 1 -51 0 -55 0 -5 8 -8 19 -8 19 0 21 5 18 77 -2 42 -7 78 -13 79 -5 2 -22 -4 -38 -14z" />
<path d="M6157 4027 c-21 -30 -37 -59 -37 -65 0 -7 15 -12 34 -12 25 0 35 -5 39 -20 3 -11 10 -20 17 -20 7 0 14 9 17 20 3 11 9 20 14 20 5 0 9 7 9 15 0 8 -4 15 -10 15 -5 0 -10 23 -10 50 0 69 -24 68 -73 -3z m35 -26 c-3 -22 -8 -28 -23 -24 -17 5 -17 6 -1 29 23 31 29 30 24 -5z" />
<path d="M6280 4065 c-19 -23 -2 -39 21 -19 10 9 25 14 34 11 26 -11 16 -43 -25 -81 -22 -20 -40 -40 -40 -46 0 -6 27 -10 60 -10 33 0 60 4 60 10 0 6 -19 10 -42 10 l-41 0 41 38 c47 43 48 48 26 80 -18 26 -75 30 -94 7z" />
<path d="M7870 4010 l0 -260 520 0 520 0 0 260 0 260 -520 0 -520 0 0 -260z m1030 5 l0 -245 -510 0 -510 0 0 245 0 245 510 0 510 0 0 -245z" />
<path d="M8218 4064 c-16 -8 -28 -18 -28 -23 0 -16 13 -21 27 -10 10 9 13 2 15 -37 0 -27 1 -55 1 -61 -1 -7 8 -13 18 -13 17 0 19 8 19 80 0 87 -3 91 -52 64z" />
<path d="M8347 4030 c-49 -66 -48 -80 4 -80 32 0 40 -3 35 -15 -4 -10 1 -15 14 -15 11 0 20 6 20 14 0 8 6 16 13 19 10 4 10 7 0 18 -7 7 -13 35 -13 61 0 65 -24 64 -73 -2z m41 -25 c-2 -19 -8 -25 -26 -25 -23 0 -23 0 -5 25 23 31 33 31 31 0z" />
<path d="M8487 4059 c-30 -23 -28 -45 4 -29 18 10 19 7 19 -50 0 -47 3 -60 15 -60 12 0 15 16 15 80 0 88 -5 94 -53 59z" />
<path d="M9160 4010 l0 -260 530 0 530 0 0 260 0 260 -530 0 -530 0 0 -260z m1040 5 l0 -245 -515 0 -515 0 0 238 c0 131 3 242 7 245 3 4 235 7 515 7 l508 0 0 -245z" />
<path d="M9508 4062 c-16 -9 -28 -20 -28 -24 0 -12 18 -19 25 -8 15 25 25 5 25 -50 0 -47 3 -60 15 -60 12 0 15 16 15 80 0 87 -4 92 -52 62z" />
<path d="M9638 4029 c-49 -65 -49 -79 2 -79 29 0 40 -4 40 -15 0 -8 7 -15 15 -15 8 0 15 7 15 15 0 8 5 15 10 15 6 0 10 7 10 15 0 8 -4 15 -10 15 -5 0 -10 23 -10 50 0 67 -23 67 -72 -1z m42 -24 c0 -18 -5 -25 -20 -25 -17 0 -18 3 -8 25 6 14 15 25 20 25 4 0 8 -11 8 -25z" />
<path d="M9767 4062 c-19 -21 -23 -92 -7 -123 15 -28 74 -26 94 3 37 52 9 138 -43 138 -15 0 -35 -8 -44 -18z m63 -21 c21 -40 9 -101 -20 -101 -20 0 -30 19 -30 56 0 29 16 64 30 64 5 0 14 -9 20 -19z" />
<path d="M6972 4133 l-122 -4 2 -192 3 -192 250 0 250 0 3 198 2 197 -132 -2 c-73 -1 -188 -4 -256 -5z" />
<path d="M10583 4132 l-252 -2 5 -183 c3 -100 7 -187 9 -194 3 -9 65 -12 252 -10 l248 2 3 152 c1 84 -1 172 -5 195 l-8 43 -252 -3z" />
<path d="M3080 3961 c0 -93 3 -183 6 -200 l7 -31 248 0 249 0 0 200 0 200 -255 0 -255 0 0 -169z" />
<path d="M11540 3223 l-275 -3 3 -245 3 -245 525 0 524 0 -2 246 -3 246 -250 2 c-137 2 -374 1 -525 -1z m760 -248 l0 -235 -510 0 -510 0 0 235 0 235 510 0 510 0 0 -235z" />
<path d="M11568 3034 c-32 -17 -38 -39 -8 -31 18 5 20 0 20 -54 0 -51 2 -59 19 -59 18 0 19 7 18 77 -1 42 -6 78 -12 79 -5 2 -22 -4 -37 -12z" />
<path d="M11660 3004 c0 -43 2 -46 23 -41 29 8 50 -6 45 -29 -3 -15 -12 -19 -42 -17 -33 2 -36 1 -26 -12 15 -18 71 -20 88 -3 7 7 12 24 12 38 0 32 -17 50 -47 50 -16 0 -23 6 -23 19 0 15 7 19 31 17 18 0 34 5 36 12 3 8 -10 12 -46 12 l-51 0 0 -46z" />
<path d="M11797 3043 c-4 -3 -7 -24 -7 -45 0 -38 1 -39 28 -33 33 7 56 -13 46 -40 -5 -13 -14 -15 -40 -10 -19 3 -34 2 -34 -3 0 -23 78 -30 98 -10 31 31 2 88 -44 88 -19 0 -25 5 -22 17 2 12 13 17 32 18 16 0 31 6 33 13 3 8 -9 12 -39 12 -25 0 -48 -3 -51 -7z" />
<path d="M2160 2970 l0 -250 460 0 460 0 0 250 0 250 -460 0 -460 0 0 -250z m900 3 l0 -238 -338 1 c-185 0 -385 1 -444 2 l-108 2 0 228 c0 126 3 232 7 235 3 4 204 7 445 7 l438 0 0 -237z" />
<path d="M2727 2997 c-20 -29 -37 -58 -37 -65 0 -6 17 -12 38 -14 24 -2 37 -8 37 -17 0 -22 24 -25 32 -4 3 10 11 21 17 26 8 5 7 9 -1 15 -6 4 -13 30 -15 57 -4 69 -25 70 -71 2z m35 -27 c-3 -22 -10 -30 -24 -30 -19 0 -19 1 -1 30 9 17 20 30 23 30 4 0 5 -13 2 -30z" />
<path d="M2463 3023 c-31 -21 -29 -35 2 -27 14 3 25 2 24 -2 -1 -5 -1 -33 0 -61 1 -40 5 -53 16 -53 12 0 15 16 15 80 0 87 -9 97 -57 63z" />
<path d="M2586 2991 c-20 -27 -36 -53 -36 -59 0 -6 17 -12 38 -14 25 -2 37 -8 37 -18 0 -8 8 -16 18 -18 11 -2 17 3 17 16 0 11 6 23 13 26 10 5 10 7 0 12 -8 3 -13 25 -13 55 0 42 -3 49 -19 49 -12 0 -34 -20 -55 -49z m34 -26 c0 -16 -6 -25 -15 -25 -18 0 -18 5 -5 31 14 26 20 24 20 -6z" />
<path d="M3250 2970 l0 -250 330 0 330 0 0 250 0 250 -330 0 -330 0 0 -250z m640 5 l0 -235 -67 0 c-38 0 -177 -1 -311 -3 l-242 -2 0 238 0 237 310 0 310 0 0 -235z" />
<path d="M3432 3028 c-38 -24 -42 -43 -7 -34 25 6 25 5 25 -54 0 -47 3 -60 15 -60 12 0 15 15 15 79 0 44 -4 82 -8 85 -4 2 -22 -5 -40 -16z" />
<path d="M3670 3021 c0 -16 -3 -36 -6 -45 -4 -11 3 -15 33 -18 30 -2 38 -7 38 -23 0 -17 -6 -20 -38 -18 -45 3 -47 -16 -3 -32 45 -16 84 21 72 69 -5 19 -15 28 -36 33 -40 8 -38 31 3 35 49 5 38 23 -15 26 -47 3 -48 3 -48 -27z" />
<path d="M3547 2990 c-20 -27 -37 -54 -37 -60 0 -5 18 -10 40 -10 33 0 40 -3 40 -20 0 -11 7 -20 15 -20 8 0 15 9 15 19 0 11 6 22 13 25 10 5 10 7 0 12 -8 3 -13 25 -13 55 0 66 -23 66 -73 -1z m43 -20 c0 -23 -4 -30 -20 -30 -24 0 -25 4 -4 35 21 32 24 31 24 -5z" />
<path d="M4090 2970 l0 -250 350 0 350 0 0 250 0 250 -350 0 -350 0 0 -250z m690 5 l0 -235 -335 0 -335 0 0 235 0 235 335 0 335 0 0 -235z" />
<path d="M4282 3030 c-35 -22 -44 -45 -13 -35 18 5 20 0 23 -52 2 -44 7 -58 18 -58 12 0 16 16 18 74 2 41 -1 78 -5 82 -5 5 -23 0 -41 -11z" />
<path d="M4434 3042 c-15 -10 -74 -99 -74 -111 0 -6 18 -11 40 -11 34 0 40 -3 40 -21 0 -12 5 -19 13 -16 6 2 12 9 12 16 0 6 7 16 15 21 11 7 12 12 3 18 -6 4 -13 29 -15 56 -3 49 -13 63 -34 48z m2 -58 c-3 -9 -6 -22 -6 -30 0 -8 -7 -14 -15 -14 -18 0 -18 2 -3 35 12 27 34 36 24 9z" />
<path d="M4531 3033 c-33 -27 -39 -90 -11 -125 12 -16 29 -28 39 -28 30 0 61 30 61 59 0 38 -22 55 -61 47 -31 -6 -31 -6 -16 17 10 15 23 21 42 19 19 -2 26 1 23 10 -7 20 -52 21 -77 1z m55 -108 c-3 -9 -14 -15 -23 -13 -22 4 -30 38 -11 49 18 11 43 -15 34 -36z" />
<path d="M4970 2970 l0 -250 350 0 350 0 0 250 0 250 -350 0 -350 0 0 -250z m680 6 l0 -234 -37 -4 c-21 -3 -105 -4 -188 -3 -82 1 -214 2 -292 3 l-143 2 0 235 0 235 330 0 330 0 0 -234z" />
<path d="M5277 2997 c-20 -29 -37 -59 -37 -65 0 -7 15 -12 34 -12 26 0 35 -5 39 -21 6 -22 32 -22 32 0 0 6 7 16 15 21 11 7 12 12 3 18 -6 4 -13 30 -15 57 -4 69 -25 70 -71 2z m33 -27 c0 -23 -4 -30 -20 -30 -24 0 -25 5 -2 35 22 31 22 31 22 -5z" />
<path d="M5409 3031 c-19 -15 -24 -29 -24 -64 0 -76 59 -113 105 -67 24 24 25 38 4 69 -13 17 -24 22 -46 19 -22 -4 -28 -1 -26 11 2 10 16 17 36 19 20 2 32 8 29 15 -6 20 -52 19 -78 -2z m59 -95 c-2 -13 -10 -21 -23 -21 -23 0 -33 34 -14 45 20 13 40 -1 37 -24z" />
<path d="M5153 3028 c-29 -14 -31 -42 -3 -33 18 6 20 2 20 -54 0 -48 3 -61 15 -61 12 0 15 16 15 80 0 85 -3 89 -47 68z" />
<path d="M5860 2970 l0 -250 295 0 295 0 0 250 0 250 -295 0 -295 0 0 -250z m570 -1 l0 -242 -67 6 c-38 4 -164 7 -280 7 l-213 0 0 235 0 235 280 0 280 0 0 -241z" />
<path d="M6007 3032 c-32 -19 -37 -47 -8 -37 18 5 20 0 23 -51 2 -35 8 -59 16 -62 9 -3 12 17 12 77 0 44 -3 82 -8 85 -4 2 -20 -3 -35 -12z" />
<path d="M6125 2999 c-54 -75 -54 -79 -7 -79 31 0 41 -4 45 -20 7 -25 27 -26 27 -1 0 10 8 22 18 26 16 6 16 7 0 16 -13 7 -18 23 -18 59 0 66 -17 65 -65 -1z m35 -29 c0 -23 -4 -30 -20 -30 -24 0 -25 5 -2 35 22 31 22 31 22 -5z" />
<path d="M6227 3044 c-13 -13 5 -24 39 -24 19 0 34 -2 34 -5 0 -2 -11 -30 -25 -61 -24 -53 -25 -82 -4 -68 15 9 70 137 65 151 -6 13 -97 19 -109 7z" />
<path d="M6626 2973 l5 -248 340 -3 339 -2 0 250 0 250 -345 0 -345 0 6 -247z m664 2 l0 -235 -252 -2 c-139 -1 -264 -1 -278 -1 -14 0 -46 1 -72 2 l-48 1 0 235 0 235 325 0 325 0 0 -235z" />
<path d="M6792 3028 c-33 -21 -34 -43 -1 -33 17 6 19 1 19 -54 0 -48 3 -61 15 -61 12 0 15 15 15 79 0 44 -4 82 -8 85 -4 2 -22 -4 -40 -16z" />
<path d="M6953 3043 c-15 -6 -83 -97 -83 -112 0 -6 16 -11 36 -11 27 0 37 -5 41 -20 7 -25 21 -26 30 -2 4 9 11 21 17 25 8 6 7 10 -1 14 -8 3 -13 24 -13 53 0 50 -6 61 -27 53z m-3 -68 c0 -24 -24 -45 -36 -32 -5 5 24 57 32 57 2 0 4 -11 4 -25z" />
<path d="M7032 3038 c-14 -14 -16 -44 -3 -53 6 -3 3 -18 -7 -36 -17 -29 -16 -31 7 -50 43 -35 101 -18 101 31 0 16 -4 32 -10 35 -6 4 -5 13 3 25 9 15 9 25 1 38 -13 21 -74 28 -92 10z m58 -18 c13 -8 13 -11 -2 -27 -21 -20 -45 -5 -35 21 7 18 16 20 37 6z m5 -85 c0 -13 -8 -21 -22 -23 -17 -3 -23 2 -23 16 0 10 3 22 7 26 13 13 38 1 38 -19z" />
<path d="M7482 2973 l3 -248 283 -3 282 -2 0 250 0 250 -285 0 -285 0 2 -247z m548 -4 l0 -241 -177 6 c-98 2 -217 5 -265 5 l-88 1 0 235 0 235 265 0 265 0 0 -241z" />
<path d="M7598 3032 c-29 -18 -32 -39 -5 -34 13 2 17 -9 19 -55 2 -46 7 -58 21 -61 16 -3 18 4 15 79 -2 45 -7 83 -13 85 -5 1 -22 -5 -37 -14z" />
<path d="M7690 3006 c0 -43 1 -45 33 -48 24 -2 32 -8 32 -23 0 -17 -6 -20 -37 -18 -43 3 -50 -12 -14 -28 59 -27 115 25 82 76 -10 15 -26 25 -41 25 -16 0 -25 6 -25 15 0 11 11 15 36 15 54 0 37 24 -19 28 l-47 3 0 -45z" />
<path d="M7843 3042 c-38 -24 -39 -120 0 -147 29 -20 43 -19 67 5 27 27 28 110 2 133 -20 18 -49 22 -69 9z m55 -81 c-3 -38 -6 -46 -23 -46 -17 0 -20 8 -23 49 -2 32 1 52 10 57 23 15 39 -12 36 -60z" />
<path d="M8230 2970 l0 -250 295 0 295 0 0 250 0 250 -295 0 -295 0 0 -250z m580 6 l0 -234 -127 -4 c-71 -2 -199 -1 -285 0 l-158 4 0 227 c0 125 3 231 7 234 3 4 132 7 285 7 l278 0 0 -234z" />
<path d="M8372 3029 c-33 -22 -34 -44 -1 -34 17 6 19 1 19 -55 0 -45 3 -61 13 -58 14 5 23 146 10 159 -5 5 -23 -1 -41 -12z" />
<path d="M8467 3043 c-4 -3 -7 -24 -7 -45 0 -37 1 -38 34 -38 35 0 50 -17 36 -40 -5 -8 -19 -11 -39 -7 -35 7 -42 -7 -11 -23 39 -21 90 9 90 54 0 22 -28 46 -56 46 -15 0 -24 6 -24 15 0 10 11 15 35 15 24 0 35 5 35 15 0 11 -11 15 -43 15 -24 0 -47 -3 -50 -7z" />
<path d="M8612 3024 c-12 -8 -20 -20 -16 -25 4 -6 11 -6 20 2 17 14 16 18 18 -56 1 -45 5 -60 16 -60 12 0 16 17 18 78 3 69 1 77 -15 77 -10 0 -29 -7 -41 -16z" />
<path d="M9000 2970 l0 -250 285 0 285 0 0 250 0 250 -285 0 -285 0 0 -250z m558 3 l2 -233 -275 0 -275 0 0 235 0 235 273 -2 272 -3 3 -232z" />
<path d="M9230 3021 c0 -16 -3 -36 -6 -45 -5 -13 1 -16 29 -16 39 0 50 -10 41 -35 -5 -13 -14 -15 -41 -10 -42 8 -42 -14 0 -29 40 -14 79 15 75 57 -2 26 -9 34 -35 42 -18 5 -33 15 -33 21 0 7 15 14 33 16 49 5 38 23 -15 26 -47 3 -48 3 -48 -27z" />
<path d="M9371 3041 c-8 -5 -11 -16 -8 -25 5 -13 10 -14 25 -5 22 14 52 6 52 -12 0 -7 -18 -29 -40 -50 -56 -53 -55 -61 8 -61 57 -1 71 14 22 22 l-32 5 36 32 c20 17 36 40 36 51 0 40 -61 67 -99 43z" />
<path d="M9133 3028 c-13 -6 -23 -17 -23 -25 0 -16 12 -17 28 -1 9 9 12 -3 12 -55 0 -53 3 -67 15 -67 12 0 15 16 15 80 0 85 -3 89 -47 68z" />
<path d="M9740 2970 l0 -250 303 2 302 3 0 245 0 245 -302 3 -303 2 0 -250z m590 6 l0 -234 -187 -4 c-104 -1 -232 -2 -285 0 l-98 3 0 235 0 234 285 0 285 0 0 -234z" />
<path d="M9892 3028 c-23 -14 -30 -24 -23 -31 7 -7 15 -6 26 3 13 11 15 5 15 -49 0 -48 3 -61 15 -61 12 0 15 16 15 80 0 44 -3 80 -7 80 -5 0 -23 -10 -41 -22z" />
<path d="M9987 3043 c-4 -3 -7 -24 -7 -45 0 -37 1 -38 35 -38 31 0 35 -3 35 -26 0 -25 -2 -26 -36 -19 -28 5 -35 3 -32 -7 9 -25 54 -33 82 -14 50 32 27 96 -33 96 -12 0 -21 7 -21 15 0 10 11 15 35 15 24 0 35 5 35 15 0 11 -11 15 -43 15 -24 0 -47 -3 -50 -7z" />
<path d="M10127 3039 c-27 -16 -11 -28 29 -22 32 5 36 4 32 -13 -2 -11 -13 -20 -26 -22 -30 -4 -28 -18 4 -26 17 -5 24 -12 22 -24 -3 -13 -13 -16 -41 -15 -42 3 -49 -12 -13 -28 54 -25 112 20 83 64 -11 17 -11 26 -3 40 24 38 -41 73 -87 46z" />
<path d="M10520 2970 l0 -250 279 0 c154 0 282 4 285 9 3 4 3 117 -1 250 l-6 241 -279 0 -278 0 0 -250z m550 5 l0 -235 -265 0 -265 0 0 235 0 235 265 0 265 0 0 -235z" />
<path d="M10648 3032 c-31 -19 -32 -39 -1 -34 17 2 20 -4 22 -55 2 -63 4 -68 20 -58 6 3 11 40 11 86 0 86 -4 90 -52 61z" />
<path d="M10747 3043 c-4 -3 -7 -24 -7 -45 0 -37 1 -38 36 -38 31 0 35 -3 32 -22 -2 -19 -8 -23 -36 -20 -38 3 -42 -14 -8 -29 32 -15 80 7 84 39 4 30 -24 62 -55 62 -14 0 -23 6 -23 15 0 10 11 15 35 15 24 0 35 5 35 15 0 11 -11 15 -43 15 -24 0 -47 -3 -50 -7z" />
<path d="M10900 2997 c-22 -30 -40 -59 -40 -65 0 -7 16 -12 40 -12 33 0 40 -3 40 -20 0 -25 18 -26 27 -2 4 9 11 21 17 25 8 6 7 10 -1 14 -8 3 -13 25 -13 59 0 71 -17 71 -70 1z m40 -22 c0 -18 -5 -25 -20 -25 -20 0 -20 1 -4 25 9 14 18 25 20 25 2 0 4 -11 4 -25z" />
<path d="M1606 2128 c1 -18 3 -264 3 -545 l1 -513 505 0 505 0 -2 273 -3 272 -377 3 -378 2 0 270 0 270 -128 0 -128 0 2 -32z m996 -780 c2 -139 3 -254 3 -254 0 -1 -165 -4 -367 -7 l-368 -5 0 259 0 259 365 0 364 0 3 -252z" />
<path d="M2056 1406 c-19 -16 -24 -26 -17 -31 7 -4 18 -1 26 5 13 11 15 3 15 -54 0 -52 3 -66 15 -66 12 0 15 16 15 85 0 94 -5 100 -54 61z" />
<path d="M2170 1410 c-14 -14 -20 -33 -20 -65 0 -51 25 -85 63 -85 27 0 57 28 57 53 0 29 -39 60 -66 53 -25 -7 -29 0 -15 23 6 9 19 12 40 8 32 -7 39 1 19 21 -18 18 -56 14 -78 -8z m58 -93 c3 -22 -1 -27 -18 -27 -26 0 -37 25 -20 45 18 22 34 13 38 -18z" />
<path d="M2296 1408 c-14 -19 -14 -25 -2 -43 12 -18 12 -23 -2 -31 -24 -16 -8 -62 25 -70 57 -15 105 32 73 71 -8 10 -8 18 1 34 30 47 -63 85 -95 39z m68 -17 c8 -12 -21 -34 -34 -26 -17 11 -11 35 9 35 11 0 22 -4 25 -9z m-6 -63 c20 -20 14 -38 -12 -38 -30 0 -42 16 -26 35 15 18 22 19 38 3z" />
<path d="M5020 1735 l0 -115 -284 0 c-156 0 -298 -3 -315 -6 l-31 -6 0 -269 0 -269 898 2 897 3 3 120 c2 66 0 189 -3 273 l-7 152 -454 0 -454 0 0 115 0 115 -125 0 -125 0 0 -115z m4 -386 c4 -138 5 -253 3 -255 -2 -2 -141 -5 -310 -7 l-307 -3 0 258 0 258 303 0 304 0 7 -251z m1146 -4 l0 -255 -412 -1 c-375 -1 -470 0 -475 4 0 1 -3 116 -5 255 l-3 252 448 0 447 0 0 -255z" />
<path d="M4655 1405 c-48 -47 -25 -145 34 -145 30 0 61 27 61 53 0 29 -39 60 -66 53 -27 -7 -32 5 -9 24 8 7 25 10 40 6 28 -7 37 17 9 28 -28 11 -44 6 -69 -19z m55 -89 c0 -28 -24 -41 -40 -21 -16 20 -5 45 20 45 14 0 20 -7 20 -24z" />
<path d="M4772 1383 c3 -45 4 -47 33 -48 23 0 30 -5 30 -20 0 -16 -6 -20 -32 -19 -35 2 -40 -5 -21 -24 28 -28 98 3 98 43 0 24 -40 57 -61 52 -14 -4 -19 0 -19 14 0 15 7 19 35 19 24 0 35 5 35 15 0 11 -12 15 -51 15 l-50 0 3 -47z" />
<path d="M4543 1408 c-29 -14 -31 -42 -3 -33 18 6 20 2 20 -54 0 -48 3 -61 15 -61 12 0 15 16 15 80 0 85 -3 89 -47 68z" />
<path d="M5680 1412 c-32 -26 -38 -90 -10 -124 37 -48 100 -31 100 27 0 40 -27 60 -66 51 -23 -6 -24 -5 -14 14 7 13 21 20 40 20 32 0 40 14 14 24 -25 10 -40 7 -64 -12z m57 -106 c-4 -9 -16 -16 -27 -16 -15 0 -20 7 -20 24 0 13 6 26 13 29 18 7 41 -19 34 -37z" />
<path d="M5818 1371 c-21 -31 -38 -60 -38 -64 0 -4 18 -7 40 -7 33 0 40 -3 40 -20 0 -11 6 -20 13 -20 16 0 41 54 27 58 -5 2 -10 28 -10 58 0 74 -23 72 -72 -5z m42 -21 c0 -23 -4 -30 -20 -30 -24 0 -25 4 -4 35 21 32 24 31 24 -5z" />
<path d="M5562 1404 c-27 -18 -29 -38 -3 -29 16 5 19 -2 24 -51 6 -61 10 -69 26 -59 6 3 11 39 11 81 0 64 -2 74 -18 74 -10 0 -28 -7 -40 -16z" />
<path d="M8272 1735 l3 -115 -462 0 -463 0 0 -275 0 -275 915 0 915 0 0 275 0 275 -325 0 -325 0 0 115 0 115 -131 0 -130 0 3 -115z m0 -390 l3 -255 -305 -1 c-168 0 -361 -2 -430 -5 -69 -2 -137 -1 -152 2 l-28 6 0 254 0 254 455 0 454 0 3 -255z m898 0 l0 -255 -237 0 c-131 0 -267 -3 -303 -6 -36 -3 -70 -1 -76 3 -7 5 -13 96 -18 261 l-6 252 320 0 320 0 0 -255z" />
<path d="M7617 1412 c-32 -20 -37 -47 -7 -37 18 6 20 2 20 -54 0 -48 3 -61 15 -61 12 0 15 15 15 79 0 44 -3 82 -8 85 -4 2 -20 -3 -35 -12z" />
<path d="M7726 1409 c-51 -40 -27 -149 33 -149 32 0 61 27 61 58 0 27 -42 56 -70 47 -21 -7 -25 1 -11 24 6 8 19 12 35 9 30 -6 46 10 25 23 -22 14 -44 10 -73 -12z m54 -94 c0 -18 -5 -25 -20 -25 -15 0 -20 7 -20 25 0 18 5 25 20 25 15 0 20 -7 20 -25z" />
<path d="M7858 1423 c-10 -2 -18 -13 -18 -24 0 -20 15 -26 25 -9 3 6 15 10 26 10 34 0 23 -42 -22 -81 -25 -21 -39 -40 -35 -47 10 -17 119 -16 114 1 -3 6 -19 14 -37 17 l-32 5 35 34 c41 40 45 63 14 85 -22 16 -37 18 -70 9z" />
<path d="M8796 1408 c-51 -46 -28 -148 34 -148 23 0 60 33 60 55 0 27 -39 57 -67 50 -20 -5 -24 -2 -21 12 2 13 15 20 43 23 38 5 39 6 18 18 -30 17 -38 15 -67 -10z m54 -93 c0 -18 -5 -25 -19 -25 -11 0 -23 5 -26 10 -11 18 3 40 25 40 15 0 20 -7 20 -25z" />
<path d="M8932 1409 c-33 -22 -34 -44 -1 -34 17 6 19 1 19 -55 0 -45 3 -61 13 -58 14 5 23 146 10 159 -5 5 -23 -1 -41 -12z" />
<path d="M8678 1406 c-25 -18 -23 -39 2 -31 18 6 20 2 20 -54 0 -48 3 -61 15 -61 12 0 15 16 15 80 0 70 -2 80 -17 80 -10 0 -26 -7 -35 -14z" />
<path d="M11750 1735 l0 -115 -375 0 -375 0 0 -275 0 -275 755 0 755 0 0 390 0 390 -380 0 -380 0 0 -115z m750 -270 l0 -375 -250 0 -250 0 0 375 0 375 250 0 250 0 0 -375z m-749 -92 c0 -126 3 -240 5 -255 l5 -28 -376 0 -375 0 0 255 0 255 370 0 370 0 1 -227z" />
<path d="M12088 1412 c-16 -9 -28 -22 -28 -29 0 -17 16 -17 27 0 5 7 10 -15 13 -53 4 -49 9 -65 20 -65 18 0 25 58 15 123 -7 47 -9 48 -47 24z" />
<path d="M12180 1384 c0 -44 1 -46 24 -40 28 7 51 -15 42 -40 -5 -12 -14 -15 -37 -10 -33 6 -37 -9 -7 -28 20 -12 62 5 77 32 15 27 -8 66 -42 70 -41 5 -35 32 8 32 24 0 35 5 35 15 0 11 -12 15 -50 15 l-50 0 0 -46z" />
<path d="M12300 1415 c0 -11 11 -15 40 -15 l40 0 -26 -57 c-31 -71 -33 -78 -15 -78 16 0 83 143 75 157 -3 4 -30 8 -60 8 -41 0 -54 -4 -54 -15z" />
<path d="M11280 1391 c0 -23 0 -44 0 -48 0 -4 15 -7 33 -7 25 -1 32 -5 32 -21 0 -17 -6 -20 -38 -18 -44 3 -47 -16 -4 -31 39 -14 77 6 77 41 0 39 -13 55 -44 56 -17 2 -26 8 -26 20 0 13 8 17 36 17 54 0 37 24 -19 28 l-47 3 0 -40z" />
<path d="M11428 1419 c-20 -11 -24 -54 -7 -65 8 -5 6 -10 -5 -16 -35 -20 -4 -78 43 -78 51 0 81 46 50 77 -8 8 -7 17 3 32 12 20 10 24 -11 42 -26 21 -47 24 -73 8z m56 -27 c9 -14 -12 -35 -28 -29 -23 9 -20 37 3 37 11 0 22 -4 25 -8z m-6 -64 c20 -20 14 -38 -12 -38 -30 0 -42 16 -26 35 15 18 22 19 38 3z" />
<path d="M11176 1404 c-20 -11 -25 -19 -18 -26 8 -8 16 -7 27 2 13 11 15 5 15 -54 0 -52 3 -66 15 -66 12 0 15 16 15 80 0 87 -3 91 -54 64z" />
<path d="M12710 1460 l0 -390 290 0 290 0 0 390 0 390 -290 0 -290 0 0 -390z m560 5 l0 -375 -163 0 c-90 0 -212 -3 -270 -7 l-107 -6 0 381 0 382 270 0 270 0 0 -375z" />
<path d="M12842 1410 c-36 -22 -43 -45 -12 -35 18 6 20 2 22 -37 0 -24 1 -50 2 -58 1 -8 9 -16 19 -18 15 -3 17 6 17 77 0 44 -4 82 -8 85 -5 3 -23 -4 -40 -14z" />
<path d="M12940 1386 c0 -44 1 -46 29 -46 34 0 44 -11 35 -35 -5 -13 -14 -15 -40 -10 -35 6 -43 -2 -22 -23 31 -31 98 1 98 48 0 31 -30 56 -56 46 -9 -3 -14 1 -14 14 0 14 8 20 33 22 49 5 38 23 -15 26 l-48 3 0 -45z" />
<path d="M13090 1412 c-13 -10 -23 -33 -27 -57 -9 -72 58 -124 100 -77 37 41 7 99 -45 88 -26 -5 -28 -4 -18 14 7 13 21 20 40 20 32 0 40 14 14 24 -25 10 -40 7 -64 -12z m57 -106 c-4 -9 -16 -16 -27 -16 -15 0 -20 7 -20 24 0 13 6 26 13 29 18 7 41 -19 34 -37z" />
<path d="M2843 1613 c-10 -3 -13 -68 -13 -274 l0 -269 300 0 300 0 -2 273 -3 272 -285 2 c-157 1 -291 -1 -297 -4z m576 -268 l-1 -255 -216 -1 c-119 -1 -248 -1 -287 -1 l-70 1 -3 255 -2 256 289 0 290 0 0 -255z" />
<path d="M2978 1409 c-33 -24 -37 -43 -8 -34 18 6 20 2 20 -54 0 -55 2 -61 20 -61 20 0 21 5 18 82 -2 45 -7 83 -13 84 -5 2 -22 -6 -37 -17z" />
<path d="M3093 1415 c-24 -17 -39 -71 -28 -104 15 -49 67 -67 99 -35 38 37 6 100 -46 90 -26 -5 -28 -4 -17 15 9 17 17 20 41 15 24 -5 29 -3 26 12 -4 23 -47 27 -75 7z m54 -109 c-4 -9 -16 -16 -27 -16 -15 0 -20 7 -20 24 0 13 6 26 13 29 18 7 41 -19 34 -37z" />
<path d="M3197 1424 c-13 -13 5 -24 39 -24 19 0 34 -2 34 -4 0 -2 -11 -28 -25 -58 -28 -61 -31 -78 -11 -78 7 0 24 26 36 58 13 31 27 61 32 67 4 5 8 17 8 27 0 15 -9 18 -53 18 -30 0 -57 -3 -60 -6z" />
<path d="M3643 1613 l-32 -4 4 -252 c2 -139 4 -260 4 -269 1 -17 22 -18 296 -18 l295 0 -2 273 -3 272 -265 1 c-146 1 -279 -1 -297 -3z m547 -266 l0 -254 -270 -7 c-149 -4 -275 -4 -280 -1 -6 4 -10 110 -10 261 l0 254 280 0 280 0 0 -253z" />
<path d="M3865 1405 c-48 -47 -22 -145 39 -145 27 0 56 29 56 57 0 31 -34 57 -65 49 -24 -6 -25 -5 -15 15 9 17 18 20 41 15 21 -4 29 -2 29 8 0 14 -21 26 -46 26 -8 0 -26 -11 -39 -25z m60 -90 c0 -13 -8 -21 -22 -23 -19 -3 -23 1 -23 23 0 22 4 26 23 23 14 -2 22 -10 22 -23z" />
<path d="M4001 1413 c-33 -27 -39 -90 -11 -125 35 -46 100 -31 100 22 0 37 -26 63 -57 57 -18 -3 -23 0 -21 12 2 10 15 17 36 19 20 2 32 8 29 15 -6 20 -52 19 -76 0z m57 -97 c4 -21 -14 -37 -35 -29 -14 5 -18 35 -6 47 12 12 38 1 41 -18z" />
<path d="M3753 1408 c-29 -14 -31 -42 -3 -33 19 6 20 2 20 -55 0 -52 3 -61 17 -58 20 4 26 38 18 106 -7 54 -13 59 -52 40z" />
<path d="M6389 1616 c-2 -2 -3 -126 -1 -275 l3 -271 377 2 377 3 0 270 0 270 -376 3 c-206 1 -377 0 -380 -2z m741 -271 l0 -255 -72 0 c-40 0 -185 0 -323 -1 -137 -1 -269 -1 -292 0 l-43 1 0 255 0 255 365 0 365 0 0 -255z" />
<path d="M6707 1418 c-55 -43 -34 -158 30 -158 33 0 66 35 57 63 -9 33 -20 40 -54 40 -47 0 -36 31 13 35 38 3 49 15 21 26 -25 9 -49 7 -67 -6z m53 -104 c0 -17 -6 -24 -20 -24 -25 0 -36 25 -20 45 16 20 40 7 40 -21z" />
<path d="M6824 1415 c-20 -15 -17 -17 31 -19 36 -1 42 -29 8 -34 -31 -4 -29 -20 2 -28 16 -4 25 -13 25 -26 0 -18 -5 -20 -41 -15 -28 4 -39 2 -36 -6 6 -20 50 -30 80 -18 21 8 27 17 27 40 0 16 -6 31 -12 34 -10 4 -10 7 0 18 40 43 -34 92 -84 54z" />
<path d="M6583 1403 c-31 -21 -29 -37 2 -29 25 6 25 5 25 -54 0 -47 3 -60 15 -60 12 0 15 16 15 80 0 87 -9 97 -57 63z" />
<path d="M9388 1613 c-17 -4 -18 -26 -18 -274 l0 -269 310 0 310 0 -2 273 -3 272 -290 1 c-159 1 -298 0 -307 -3z m582 -266 l0 -254 -269 -6 c-148 -3 -278 -3 -290 0 -21 5 -21 9 -21 259 l0 254 290 0 290 0 0 -253z" />
<path d="M9523 1409 c-18 -12 -33 -25 -33 -30 0 -13 18 -11 27 4 5 7 10 -15 13 -53 4 -49 9 -65 20 -65 18 0 25 70 13 127 l-8 37 -32 -20z" />
<path d="M9620 1410 c-14 -14 -20 -33 -20 -65 0 -73 62 -113 103 -67 37 40 3 101 -48 88 -24 -6 -25 -5 -15 15 9 17 18 20 41 15 21 -4 29 -2 29 8 0 31 -61 35 -90 6z m65 -95 c0 -13 -8 -21 -22 -23 -19 -3 -23 1 -23 23 0 22 4 26 23 23 14 -2 22 -10 22 -23z" />
<path d="M9750 1410 c-14 -14 -20 -33 -20 -65 0 -51 25 -85 64 -85 29 0 44 17 52 58 17 84 -45 143 -96 92z m64 -26 c16 -43 -3 -108 -29 -98 -17 7 -30 64 -20 93 8 25 40 28 49 5z" />
<path d="M10187 1613 c-3 -5 -4 -127 -3 -273 l3 -265 304 0 304 0 0 270 -1 270 -301 3 c-166 1 -304 -1 -306 -5z m593 -267 l0 -254 -232 -3 c-128 -2 -259 -3 -290 -1 l-58 4 0 254 0 254 290 0 290 0 0 -254z" />
<path d="M10328 1409 c-33 -24 -37 -43 -8 -34 18 6 20 2 20 -54 0 -55 2 -61 20 -61 20 0 21 5 18 82 -2 45 -7 83 -13 84 -5 2 -22 -6 -37 -17z" />
<path d="M10420 1386 c0 -43 1 -45 33 -48 25 -2 33 -8 35 -27 4 -22 1 -24 -32 -18 -27 4 -36 2 -36 -8 0 -20 46 -30 76 -16 21 9 25 17 22 49 -3 32 -7 38 -35 47 -45 13 -43 35 3 35 54 0 37 24 -19 28 l-47 3 0 -45z" />
<path d="M10560 1410 c-26 -26 -25 -45 1 -71 14 -14 29 -19 45 -16 19 3 24 1 22 -12 -2 -11 -16 -17 -41 -19 -32 -3 -36 -6 -26 -18 17 -21 55 -17 79 8 29 32 28 111 -2 132 -30 21 -54 20 -78 -4z m65 -35 c0 -13 -8 -21 -22 -23 -19 -3 -23 1 -23 23 0 22 4 26 23 23 14 -2 22 -10 22 -23z" />
</g>
<text x="335.0" y="176.66666666666666" text-anchor="middle" dominant-baseline="middle" font-size="14" fill="black"></text><text x="473.75" y="178.5" text-anchor="middle" dominant-baseline="middle" font-size="14" fill="black"></text><text x="711.3333333333334" y="173.5" text-anchor="middle" dominant-baseline="middle" font-size="14" fill="black"></text><text x="855.75" y="176.75" text-anchor="middle" dominant-baseline="middle" font-size="14" fill="black"></text><text x="1022.625" y="178.0" text-anchor="middle" dominant-baseline="middle" font-size="14" fill="black"></text><text x="1229.0" y="168.75" text-anchor="middle" dominant-baseline="middle" font-size="14" fill="black"></text><text x="428.75" y="377.5" text-anchor="middle" dominant-baseline="middle" font-size="14" fill="black"></text><text x="754.3333333333334" y="379.1666666666667" text-anchor="middle" dominant-baseline="middle" font-size="14" fill="black"></text><text x="967.1666666666666" y="379.8333333333333" text-anchor="middle" dominant-baseline="middle" font-size="14" fill="black"></text><text x="967.8333333333334" y="569.6666666666666" text-anchor="middle" dominant-baseline="middle" font-size="14" fill="black"></text><text x="746.5" y="573.0" text-anchor="middle" dominant-baseline="middle" font-size="14" fill="black"></text><text x="426.75" y="566.25" text-anchor="middle" dominant-baseline="middle" font-size="14" fill="black"></text><text x="301.0" y="804.1666666666666" text-anchor="middle" dominant-baseline="middle" font-size="14" fill="black"></text><text x="463.125" y="807.75" text-anchor="middle" dominant-baseline="middle" font-size="14" fill="black"></text><text x="659.75" y="807.25" text-anchor="middle" dominant-baseline="middle" font-size="14" fill="black"></text><text x="860.125" y="806.75" text-anchor="middle" dominant-baseline="middle" font-size="14" fill="black"></text><text x="1164.0" y="782.4285714285714" text-anchor="middle" dominant-baseline="middle" font-size="14" fill="black"></text><text x="1051.5" y="846.8333333333334" text-anchor="middle" dominant-baseline="middle" font-size="14" fill="black"></text></svg>